<svg width="512" height="512" viewBox="0 0 512 512" fill="none" xmlns="http://www.w3.org/2000/svg">
<rect width="512" height="512" rx="100" fill="white"/>
<path d="M287.061 220.899C280.874 237.767 273.385 253.85 269.057 271.135C267.61 276.915 267.03 282.733 267.223 288.708C267.56 299.15 273.665 302.161 282.68 300.074C288.177 298.802 292.342 295.156 295.716 290.62C304.053 279.41 309.489 266.549 315.323 253.924C327.242 228.129 338.276 201.893 351.331 176.663C357.538 164.668 364.948 153.528 375.57 145.059C384.629 137.836 394.897 134.208 406.374 134.222C410.378 134.227 414.381 134.223 418.71 134.223C418.366 139.408 416.829 143.753 415.842 148.189C413.989 156.513 413.883 156.517 405.462 156.567C396.555 156.619 389.991 161.357 384.29 167.742C375.691 177.371 369.712 188.725 364.164 200.356C351.526 226.849 340.341 254.048 327.428 280.408C322.65 290.161 317.512 299.702 310.325 307.878C299.419 320.286 285.916 325.515 269.881 322.388C255.32 319.548 246.366 307.913 245.346 292.554C244.266 276.311 248.134 261.129 253.492 246.136C260.567 226.343 269.015 207.089 275.496 187.069C277.561 180.691 279.393 174.163 277.943 167.259C276.789 161.76 273.873 157.85 268.272 157.041C257.526 155.487 250.155 156.525 243.07 166.672C236.942 175.447 233.54 185.586 230.006 195.599C215.782 235.903 201.956 276.351 188.479 316.926C187.553 319.714 187.874 320.96 190.769 322.179C207.94 329.408 224.626 337.817 242.04 344.47C255.178 349.489 268.621 353.25 282.678 353.779C301.72 354.497 318.207 348.802 329.809 332.222C331.605 329.655 332.992 329.098 335.57 331.192C339.454 334.348 343.586 337.189 347.696 340.039C349.653 341.397 349.836 342.595 348.486 344.656C337.867 360.872 323.002 370.448 304.555 374.245C282.789 378.726 261.69 375.051 240.992 367.973C220.713 361.037 201.498 351.472 182.161 342.243C179.163 340.812 177.861 341.196 176.306 344.141C171.721 352.825 166.398 361.01 158.742 367.238C145.184 378.267 130.178 381.724 113.675 375.582C101.644 371.104 93.5911 358.158 93.0357 344.973C92.128 323.422 108.632 307.062 129.703 306.149C141.298 305.646 152.403 307.76 163.315 311.359C166.089 312.274 167.132 311.535 168.042 308.814C179.209 275.441 190.35 242.058 201.781 208.781C207.494 192.15 212.778 175.29 221.125 159.766C228.029 146.924 238.025 137.874 252.468 135.18C262.606 133.289 272.715 133.211 282.143 138.412C296.16 146.145 302.619 160.801 300.291 177.726C298.214 192.826 292.332 206.599 287.061 220.899ZM114.956 343.717C115.499 350.19 119.219 354.854 125.159 355.857C130.367 356.737 135.499 356.177 140.202 353.388C148.224 348.631 152.731 340.874 157.305 332.656C147.895 329.468 138.754 327.138 129.222 328.269C120.169 329.344 115.28 334.736 114.956 343.717Z" fill="black"/>
<path d="M252.49 135.299C262.616 133.41 272.692 133.335 282.085 138.517C296.052 146.222 302.494 160.827 300.172 177.71C298.227 191.851 292.942 204.825 287.943 218.181L286.948 220.857C280.766 237.713 273.271 253.814 268.941 271.106C267.491 276.897 266.909 282.726 267.103 288.712C267.272 293.954 268.891 297.363 271.631 299.189C274.366 301.013 278.186 301.238 282.707 300.191C288.242 298.91 292.429 295.239 295.812 290.691C304.158 279.469 309.601 266.594 315.432 253.975C327.354 228.174 338.384 201.945 351.438 176.718C357.641 164.73 365.042 153.607 375.645 145.153C384.683 137.947 394.925 134.328 406.374 134.342C410.337 134.347 414.301 134.342 418.579 134.342C418.219 139.459 416.708 143.747 415.725 148.163C415.261 150.246 414.908 151.8 414.509 152.964C414.11 154.127 413.669 154.884 413.04 155.387C412.411 155.89 411.577 156.152 410.362 156.288C409.147 156.425 407.569 156.434 405.462 156.446C396.506 156.499 389.911 161.266 384.2 167.662C375.59 177.305 369.604 188.672 364.056 200.304C357.736 213.552 351.779 226.977 345.789 240.383C339.799 253.789 333.776 267.178 327.32 280.355C322.543 290.107 317.41 299.635 310.234 307.799C299.354 320.177 285.893 325.389 269.904 322.271C255.405 319.443 246.482 307.859 245.465 292.546C244.387 276.327 248.249 261.163 253.605 246.177C257.142 236.282 261.021 226.523 264.828 216.731C268.635 206.941 272.369 197.12 275.61 187.106C277.675 180.728 279.517 174.173 278.061 167.234C277.481 164.471 276.456 162.098 274.864 160.312C273.271 158.523 271.116 157.33 268.289 156.922C262.911 156.144 258.359 156.012 254.261 157.354C250.158 158.698 246.525 161.514 242.972 166.603C236.833 175.394 233.425 185.551 229.893 195.56C215.668 235.864 201.842 276.313 188.365 316.889C187.902 318.284 187.736 319.33 188.08 320.186C188.425 321.045 189.269 321.678 190.722 322.29C207.88 329.514 224.583 337.93 241.997 344.582C255.141 349.603 268.598 353.369 282.673 353.899C301.745 354.618 318.276 348.912 329.907 332.29C330.805 331.008 331.578 330.264 332.423 330.076C333.26 329.89 334.212 330.244 335.494 331.285C339.382 334.444 343.519 337.288 347.627 340.138C348.597 340.811 349.099 341.426 349.213 342.104C349.327 342.784 349.057 343.566 348.386 344.591C337.785 360.778 322.948 370.336 304.53 374.128C282.794 378.603 261.717 374.934 241.03 367.859C220.76 360.927 201.552 351.365 182.213 342.135C180.712 341.418 179.599 341.136 178.656 341.437C177.713 341.737 176.98 342.609 176.2 344.085C171.618 352.764 166.304 360.931 158.666 367.145C145.137 378.15 130.174 381.595 113.717 375.47C101.739 371.012 93.709 358.114 93.1553 344.968C92.2506 323.489 108.698 307.18 129.708 306.269C141.285 305.767 152.375 307.877 163.277 311.473C164.671 311.932 165.669 311.991 166.437 311.554C167.2 311.119 167.7 310.214 168.156 308.852C179.323 275.479 190.464 242.096 201.895 208.819C207.609 192.184 212.89 175.336 221.23 159.822C228.122 147.004 238.092 137.985 252.49 135.299ZM157.343 332.542C147.929 329.353 138.767 327.015 129.208 328.149C124.661 328.689 121.146 330.315 118.728 332.946C116.309 335.577 114.999 339.201 114.836 343.713V343.727C115.383 350.243 119.136 354.962 125.14 355.976C130.369 356.859 135.53 356.297 140.263 353.491C148.317 348.715 152.837 340.929 157.409 332.714L157.479 332.588L157.343 332.542Z" stroke="#808080" stroke-opacity="0.28" stroke-width="0.239936"/>
<ellipse cx="359.521" cy="314.577" rx="11.195" ry="11.5131" fill="#4272EE"/>
<path d="M359.521 303.184C365.634 303.184 370.595 308.281 370.595 314.576C370.595 320.872 365.634 325.97 359.521 325.97C353.408 325.97 348.446 320.872 348.446 314.576C348.446 308.281 353.408 303.184 359.521 303.184Z" stroke="#808080" stroke-opacity="0.28" stroke-width="0.239936"/>
</svg>
